<svg xmlns="http://www.w3.org/2000/svg" height="512" width="512" xmlns:v="https://vecta.io/nano"><path d="M256 272c-33.084 0-60 26.916-60 60 0 26.073 16.722 48.304 40 56.56V412c0 11.046 8.954 20 20 20s20-8.954 20-20v-23.44c23.278-8.256 40-30.487 40-56.56 0-33.084-26.916-60-60-60zm0 80c-11.028 0-20-8.972-20-20s8.972-20 20-20 20 8.972 20 20-8.972 20-20 20zm-80 160h160c55.141 0 100-44.86 100-100V292c0-55.14-44.859-100-100-100H176c-55.141 0-100 44.86-100 100v120c0 55.14 44.859 100 100 100zm-60-220c0-33.084 26.916-60 60-60h160c33.084 0 60 26.916 60 60v120c0 33.084-26.916 60-60 60H176c-33.084 0-60-26.916-60-60zm60-140c11.046 0 20-8.954 20-20v-32c0-33.084 26.916-60 60-60s60 26.916 60 60v32c0 11.046 8.954 20 20 20s20-8.954 20-20v-32C356 44.86 311.141 0 256 0S156 44.86 156 100v32c0 11.046 8.954 20 20 20z"/></svg>